<svg xmlns="http://www.w3.org/2000/svg" viewBox="0 0 209.06 23.23"><defs><style>.cls-1{fill:#010101;}.cls-2{fill:#029bd0;}.cls-3{fill:#e40a7c;}.cls-4{fill:#f29120;}</style></defs><title>itg</title><g id="Lager_2" data-name="Lager 2"><g id="Layer_1" data-name="Layer 1"><path class="cls-1" d="M151.32,21.37a1.77,1.77,0,0,0,.54.44,2.33,2.33,0,0,0,1.09.27c.56,0,1-.26,1-.66s-.57-.52-1-.58-.62-.08-.93-.14-1.52-.32-1.52-1.54c0-1.46,1.3-1.89,2.27-1.89a3.44,3.44,0,0,1,2.5,1.07l-1,.74a2.6,2.6,0,0,0-.56-.46,2,2,0,0,0-.92-.25c-.56,0-.84.32-.84.59,0,.43.48.5.72.53a10.91,10.91,0,0,1,1.73.34,1.4,1.4,0,0,1,1,1.38,1.88,1.88,0,0,1-.45,1.2,2.71,2.71,0,0,1-2.12.76,3,3,0,0,1-2.57-1.14Z"/><path class="cls-1" d="M160.56,17.42h1.34v2.3l2.11-2.3h1.7l-2,2.09,2.16,3.55h-1.59l-1.51-2.56-.86.9v1.66h-1.34Z"/><path class="cls-1" d="M173.16,23.23a2.78,2.78,0,0,1-2.81-3,2.78,2.78,0,0,1,2.78-3,3.16,3.16,0,0,1,1,.17A3,3,0,0,1,176,20.28a3.07,3.07,0,0,1-1.07,2.36A2.71,2.71,0,0,1,173.16,23.23Zm-1.5-7.32h1.28v.94h-1.28Zm2.48,2.93a1.38,1.38,0,0,0-1-.42c-.86,0-1.4.75-1.4,1.78,0,1.34.75,1.84,1.42,1.84s1.39-.48,1.43-1.66A2.2,2.2,0,0,0,174.14,18.84Zm.58-2.93v.93h-1.29V15.9Z"/><path class="cls-1" d="M184.51,17.42H186l-2,5.64h-1.44l-1.93-5.64h1.5l1.17,4Z"/><path class="cls-1" d="M190.9,17.42h1.8a3.66,3.66,0,0,1,2.45.66A2.78,2.78,0,0,1,196,20.2a3.76,3.76,0,0,1-.14,1.09,2.53,2.53,0,0,1-2.69,1.78H190.9Zm1.42,1.19v3.32h.43c.75,0,1.79-.06,1.79-1.68a1.83,1.83,0,0,0-.3-1.14,1.5,1.5,0,0,0-1.36-.5Z"/><path class="cls-1" d="M201.08,17.42h4.17v1.09h-2.77v1h2.58v1.07h-2.58V22h3v1.11h-4.42Z"/><path class="cls-1" d="M49,12.28h.83c1.12,0,1.24-.18,1.24-1.18V3.38c0-1-.12-1.18-1.24-1.18H49V.41H57.1V2.2h-.83C55.14,2.2,55,2.38,55,3.38V11.1c0,1,.14,1.18,1.26,1.18h.83v1.79H49Z"/><path class="cls-1" d="M71.24,5.68H69.38c0-2.34-.85-3.44-2.71-3.44h-.2v8.68c0,.73,0,1.12.33,1.22a6.41,6.41,0,0,0,1.83.18v1.75h-8.1V12.32a6.68,6.68,0,0,0,1.85-.18c.31-.1.33-.49.33-1.2V2.24h-.2c-1.85,0-2.73,1.1-2.73,3.44H58V.41H71.24Z"/><rect class="cls-1" x="69.98" y="7.74" width="5.74" height="3.06"/><path class="cls-1" d="M89.1,13.18a7.66,7.66,0,0,1-4.31,1.3c-4.15,0-6.81-2.71-6.81-7S80.82,0,84.87,0a6.68,6.68,0,0,1,4,1.26l.35-1h1.87v5.5h-2C88.83,3.24,87.71,2,85.62,2S82.4,3.71,82.4,7c0,3.71.88,5.48,3.13,5.48,1.65,0,2.08-.51,2.08-1.83v-1c0-.88-.06-1.06-1-1.06h-1V6.82h7.45V8.62h-.73c-.71,0-.94.2-.94.92v4.69H89.61Z"/><path class="cls-1" d="M103.58,12.32h1v1.75H96.3V12.32h1c1.08,0,1.28-.16,1.28-1.38V8.43l-3-4.69a2.8,2.8,0,0,0-2.62-1.61V.41h7.81V2.14h-.65c-.57,0-.85.16-.85.51a2.33,2.33,0,0,0,.47.94L101.28,6l1.85-2.79a1.24,1.24,0,0,0,.24-.69c0-.31-.35-.43-1.08-.43H102V.41h5.78V2.14h-.06c-1.3,0-1.75.59-2.38,1.61l-3,4.69v2.51c0,1.22.18,1.38,1.26,1.38"/><path class="cls-1" d="M114.16,12.28h.39v1.79h-5.84V12.28h.67c1.12,0,1.26-.18,1.26-1.18V3.38c0-1-.14-1.18-1.26-1.18h-.67V.41h7.16l2.38,8.41,2.5-8.41h7.1V2.2h-.69c-1.12,0-1.26.18-1.26,1.18V11.1c0,1,.14,1.18,1.26,1.18h.69v1.79h-7.16V12.28h.41c1.12,0,1.24-.18,1.24-1.18V2.57l-3.4,11.51h-2.75L112.9,2.55V11.1c0,1,.14,1.18,1.26,1.18"/><path class="cls-1" d="M129.33,2.2h-.71V.41h6.53l5.23,9.53V3.38c0-1-.14-1.18-1.26-1.18h-.77V.41h6.23V2.2h-.63c-1.12,0-1.26.18-1.26,1.18V14.08h-4.19L132.89,3.91V11.1c0,1,.14,1.18,1.26,1.18h.77v1.79h-6.31V12.28h.71c1.12,0,1.26-.18,1.26-1.18V3.38c0-1-.14-1.18-1.26-1.18"/><path class="cls-1" d="M150.41,3.59,149,7.9h2.77Zm-6.81,8.7h.49c1.1,0,1.26-.37,1.59-1.32L149.17.41h4.07L156.59,11c.3.94.55,1.26,1.4,1.26h.69v1.79h-7.53V12.28h.57c.9,0,1.24-.08,1.24-.49a2.17,2.17,0,0,0-.1-.43l-.53-1.69h-3.93l-.51,1.57a1.83,1.83,0,0,0-.1.55c0,.43.3.49,1.1.49h.67v1.79h-6Z"/><path class="cls-1" d="M159.48,14.26V8.88h1.83a4.08,4.08,0,0,0,4.23,3.61c1.57,0,2.46-.65,2.46-1.63C168,9.51,166.8,9.41,165,9a11.2,11.2,0,0,1-4.31-1.59,3.61,3.61,0,0,1-1.38-2.93c0-2.73,2-4.36,5.55-4.36a6.56,6.56,0,0,1,4.11,1.14l.41-1H171v5h-1.87c-.24-2-1.77-3.24-4-3.24-1.42,0-2.22.65-2.22,1.59,0,1.32,1.51,1.28,4.31,2,3.05.75,4.52,2.1,4.52,4.46,0,2.67-2.11,4.44-5.65,4.44a8,8,0,0,1-4.39-1.22l-.55,1Z"/><path class="cls-1" d="M172.66,12.28h.83c1.12,0,1.24-.18,1.24-1.18V3.38c0-1-.12-1.18-1.24-1.18h-.83V.41h8.05V2.2h-.83c-1.12,0-1.26.18-1.26,1.18V11.1c0,1,.14,1.18,1.26,1.18h.83v1.79h-8.05Z"/><path class="cls-1" d="M181.53,12.28h.75c1.12,0,1.24-.18,1.24-1.18V3.38c0-1-.12-1.18-1.24-1.18h-.75V.41H195V5.62h-1.79a4.5,4.5,0,0,0-1-2.77c-.67-.63-1.65-.65-3.11-.65h-1.77V6.09h.35c1.53,0,1.89-.45,1.89-2.16h1.71v6.23h-1.71c0-1.93-.35-2.28-1.89-2.28h-.35v4.4h1.83c2.87,0,3.74-.65,4-3.85H195v5.64H181.53Z"/><path class="cls-1" d="M209.06,5.68H207.2c0-2.34-.85-3.44-2.71-3.44h-.2v8.68c0,.73,0,1.12.33,1.22a6.41,6.41,0,0,0,1.83.18v1.75h-8.1V12.32a6.68,6.68,0,0,0,1.85-.18c.31-.1.33-.49.33-1.2V2.24h-.2c-1.85,0-2.73,1.1-2.73,3.44h-1.83V.41h13.28Z"/><rect class="cls-2" width="14.26" height="14.28"/><rect class="cls-3" x="16.05" width="14.26" height="14.28"/><rect class="cls-4" x="32.1" width="14.26" height="14.28"/></g></g></svg>